# xmcd
#
# Track frame offsets:
#	182
#	15902
#	29017
#	44392
#	59032
#	72502
#	84957
#	100145
#	114025
#	128635
#	143287
#	150917
#
# Disc length: 2208 seconds
#
# Revision: 1
# Processed by: cddbd v1.5PL3 Copyright (c) Steve Scherf et al.
# Submitted via: audiograbber 1.83.01
#
DISCID=8b089e0c
DTITLE=Varius - Ta Tragoudia ths Pareas no1
DYEAR=1900
DGENRE=Rempetika
TTITLE0=Mpinhs-Ntalia-Mosxonas - Falhriwtissa
TTITLE1=Perpiniadhs-Zagoraios - Apo Vradys Ksekinhsa
TTITLE2=Marika Ninou - Ti Shmera ti Aurio ti Twra
TTITLE3=Panos Gavalas - Siganopsixalisma
TTITLE4=Athinaikh Kompania - To Minore ths Aughs
TTITLE5=S.Tzouanakos - Liga Psixoula Agaphs sou Gyrevw
TTITLE6=Mosxonas-Stelakhs - Prin to Xarama Monaxos
TTITLE7=Perpiniadhs-Zagoraios - Zousa Monaxos Xwris Agaph
TTITLE8=Athinaikh Kompania - Alhth me Eipes mia Vradia
TTITLE9=Mpithikotshs-Tsitsanhs - H Amaksa mes th Vroxh
TTITLE10=Poly Panou-Tsitsanhs - Kane Ligaki Ypomonh
TTITLE11=Tsaousakhs-Georgakopoulou - Peftoun ths Vroxhs oi Stales
EXTD=
EXTT0=
EXTT1=
EXTT2=
EXTT3=
EXTT4=
EXTT5=
EXTT6=
EXTT7=
EXTT8=
EXTT9=
EXTT10=
EXTT11=
PLAYORDER=
